{
  "accessors": [
    {
      "bufferView": 2,
      "componentType": 5126,
      "count": 321,
      "max": [
        295.27569580078125,
        590.55120849609375,
        157.48031616210938
      ],
      "min": [
        0,
        0,
        0
      ],
      "type": "VEC3"
    },
    {
      "bufferView": 2,
      "byteOffset": 3852,
      "componentType": 5126,
      "count": 321,
      "max": [
        1,
        1,
        1
      ],
      "min": [
        -1,
        -1,
        -1
      ],
      "type": "VEC3"
    },
    {
      "bufferView": 3,
      "componentType": 5126,
      "count": 321,
      "max": [
        1,
        1,
        1,
        1
      ],
      "min": [
        -1,
        -1,
        -1,
        1
      ],
      "type": "VEC4"
    },
    {
      "bufferView": 1,
      "componentType": 5126,
      "count": 321,
      "max": [
        0.99950003623962402,
        0.99469029903411865
      ],
      "min": [
        0.00050000002374872565,
        0.00050000002374872565
      ],
      "type": "VEC2"
    },
    {
      "bufferView": 1,
      "byteOffset": 2568,
      "componentType": 5126,
      "count": 321,
      "max": [
        295.77560424804688,
        295.775634765625
      ],
      "min": [
        -294.775634765625,
        -294.775634765625
      ],
      "type": "VEC2"
    },
    {
      "bufferView": 0,
      "componentType": 5125,
      "count": 483,
      "max": [
        320
      ],
      "min": [
        0
      ],
      "type": "SCALAR"
    },
    {
      "bufferView": 2,
      "byteOffset": 7704,
      "componentType": 5126,
      "count": 156,
      "max": [
        311.0235595703125,
        0,
        157.48031616210938
      ],
      "min": [
        -15.748092651367188,
        -590.55120849609375,
        -5.1627626817207783e-05
      ],
      "type": "VEC3"
    },
    {
      "bufferView": 2,
      "byteOffset": 9576,
      "componentType": 5126,
      "count": 156,
      "max": [
        1,
        1,
        1
      ],
      "min": [
        -1,
        -1,
        -1
      ],
      "type": "VEC3"
    },
    {
      "bufferView": 3,
      "byteOffset": 5136,
      "componentType": 5126,
      "count": 156,
      "max": [
        1,
        1,
        8.742274104633907e-08,
        1
      ],
      "min": [
        -1,
        -1,
        0,
        1
      ],
      "type": "VEC4"
    },
    {
      "bufferView": 1,
      "byteOffset": 5136,
      "componentType": 5126,
      "count": 156,
      "max": [
        0.99492514133453369,
        0.99950003623962402
      ],
      "min": [
        0.00050000002374872565,
        0.00050000002374872565
      ],
      "type": "VEC2"
    },
    {
      "bufferView": 1,
      "byteOffset": 6384,
      "componentType": 5126,
      "count": 156,
      "max": [
        295.77566528320312,
        289.87008666992188
      ],
      "min": [
        -294.77560424804688,
        -288.87008666992188
      ],
      "type": "VEC2"
    },
    {
      "bufferView": 0,
      "byteOffset": 1932,
      "componentType": 5125,
      "count": 234,
      "max": [
        155
      ],
      "min": [
        0
      ],
      "type": "SCALAR"
    },
    {
      "bufferView": 2,
      "byteOffset": 11448,
      "componentType": 5126,
      "count": 16108,
      "max": [
        237.81993103027344,
        64.829299926757812,
        19.358428955078125
      ],
      "min": [
        -88.951736450195312,
        -513.910888671875,
        -138.12191772460938
      ],
      "type": "VEC3"
    },
    {
      "bufferView": 2,
      "byteOffset": 204744,
      "componentType": 5126,
      "count": 16108,
      "max": [
        1,
        1,
        1
      ],
      "min": [
        -1,
        -1,
        -1
      ],
      "type": "VEC3"
    },
    {
      "bufferView": 3,
      "byteOffset": 7632,
      "componentType": 5126,
      "count": 16108,
      "max": [
        0,
        0,
        0,
        1
      ],
      "min": [
        0,
        0,
        0,
        1
      ],
      "type": "VEC4"
    },
    {
      "bufferView": 1,
      "byteOffset": 7632,
      "componentType": 5126,
      "count": 16108,
      "max": [
        0.99779635667800903,
        0.99950003623962402
      ],
      "min": [
        0.00050000002374872565,
        0.00050000002374872565
      ],
      "type": "VEC2"
    },
    {
      "bufferView": 1,
      "byteOffset": 136496,
      "componentType": 5126,
      "count": 16108,
      "max": [
        0,
        0
      ],
      "min": [
        0,
        0
      ],
      "type": "VEC2"
    },
    {
      "bufferView": 0,
      "byteOffset": 2868,
      "componentType": 5125,
      "count": 36636,
      "max": [
        16107
      ],
      "min": [
        0
      ],
      "type": "SCALAR"
    },
    {
      "bufferView": 2,
      "byteOffset": 398040,
      "componentType": 5126,
      "count": 28,
      "max": [
        322.83462524414062,
        399.40948486328125,
        133.85829162597656
      ],
      "min": [
        -3.0517578125e-05,
        -175.3936767578125,
        -19.68504524230957
      ],
      "type": "VEC3"
    },
    {
      "bufferView": 2,
      "byteOffset": 398376,
      "componentType": 5126,
      "count": 28,
      "max": [
        1,
        0,
        0
      ],
      "min": [
        -1,
        0,
        0
      ],
      "type": "VEC3"
    },
    {
      "bufferView": 3,
      "byteOffset": 265360,
      "componentType": 5126,
      "count": 28,
      "max": [
        0,
        0,
        1,
        1
      ],
      "min": [
        0,
        -1,
        -3.1382452903017111e-07,
        1
      ],
      "type": "VEC4"
    },
    {
      "bufferView": 1,
      "byteOffset": 265360,
      "componentType": 5126,
      "count": 28,
      "max": [
        1,
        1
      ],
      "min": [
        0,
        0
      ],
      "type": "VEC2"
    },
    {
      "bufferView": 1,
      "byteOffset": 265584,
      "componentType": 5126,
      "count": 28,
      "max": [
        0,
        0
      ],
      "min": [
        0,
        0
      ],
      "type": "VEC2"
    },
    {
      "bufferView": 0,
      "byteOffset": 149412,
      "componentType": 5125,
      "count": 42,
      "max": [
        27
      ],
      "min": [
        0
      ],
      "type": "SCALAR"
    },
    {
      "bufferView": 2,
      "byteOffset": 398712,
      "componentType": 5126,
      "count": 216,
      "max": [
        156.69743347167969,
        17.21759033203125,
        5.9471855163574219
      ],
      "min": [
        -7.8292288780212402,
        -349.38427734375,
        -8.230224609375
      ],
      "type": "VEC3"
    },
    {
      "bufferView": 2,
      "byteOffset": 401304,
      "componentType": 5126,
      "count": 216,
      "max": [
        0.0001454815937904641,
        0.89880406856536865,
        0.43856054544448853
      ],
      "min": [
        -0.0001873102446552366,
        -0.90263420343399048,
        -1
      ],
      "type": "VEC3"
    },
    {
      "bufferView": 3,
      "byteOffset": 265808,
      "componentType": 5126,
      "count": 216,
      "max": [
        0,
        0,
        0,
        1
      ],
      "min": [
        0,
        0,
        0,
        1
      ],
      "type": "VEC4"
    },
    {
      "bufferView": 1,
      "byteOffset": 265808,
      "componentType": 5126,
      "count": 216,
      "max": [
        0,
        0
      ],
      "min": [
        0,
        0
      ],
      "type": "VEC2"
    },
    {
      "bufferView": 1,
      "byteOffset": 267536,
      "componentType": 5126,
      "count": 216,
      "max": [
        0.96418178081512451,
        0.91759562492370605
      ],
      "min": [
        0.44076168537139893,
        0.33178603649139404
      ],
      "type": "VEC2"
    },
    {
      "bufferView": 0,
      "byteOffset": 149580,
      "componentType": 5125,
      "count": 594,
      "max": [
        215
      ],
      "min": [
        0
      ],
      "type": "SCALAR"
    },
    {
      "bufferView": 2,
      "byteOffset": 403896,
      "componentType": 5126,
      "count": 24,
      "max": [
        196.85038757324219,
        0.78740155696868896,
        78.740158081054688
      ],
      "min": [
        0,
        0,
        0
      ],
      "type": "VEC3"
    },
    {
      "bufferView": 2,
      "byteOffset": 404184,
      "componentType": 5126,
      "count": 24,
      "max": [
        1,
        1,
        1
      ],
      "min": [
        -1,
        -1,
        -1
      ],
      "type": "VEC3"
    },
    {
      "bufferView": 3,
      "byteOffset": 269264,
      "componentType": 5126,
      "count": 24,
      "max": [
        1,
        1,
        0,
        1
      ],
      "min": [
        -1,
        -1,
        0,
        1
      ],
      "type": "VEC4"
    },
    {
      "bufferView": 1,
      "byteOffset": 269264,
      "componentType": 5126,
      "count": 24,
      "max": [
        0.99503445625305176,
        0.99949997663497925
      ],
      "min": [
        0.00050000002374872565,
        0.00050000002374872565
      ],
      "type": "VEC2"
    },
    {
      "bufferView": 1,
      "byteOffset": 269456,
      "componentType": 5126,
      "count": 24,
      "max": [
        1,
        1
      ],
      "min": [
        0,
        0
      ],
      "type": "VEC2"
    },
    {
      "bufferView": 0,
      "byteOffset": 151956,
      "componentType": 5125,
      "count": 36,
      "max": [
        23
      ],
      "min": [
        0
      ],
      "type": "SCALAR"
    }
  ],
  "asset": {
    "extras": {
      "author": "Marcin Lubecki (https://sketchfab.com/Lubus)",
      "license": "SKETCHFAB Standard (https://sketchfab.com/licenses)",
      "source": "https://sketchfab.com/3d-models/moody-lighting-art-gallery-2019-f72385d809234ac7b246ef704afd2c44",
      "title": "Moody Lighting Art Gallery 2019"
    },
    "generator": "Sketchfab-5.17.0",
    "version": "2.0"
  },
  "bufferViews": [
    {
      "buffer": 0,
      "byteLength": 152100,
      "byteOffset": 0,
      "name": "floatBufferViews",
      "target": 34963
    },
    {
      "buffer": 0,
      "byteLength": 269648,
      "byteOffset": 152100,
      "byteStride": 8,
      "name": "floatBufferViews",
      "target": 34962
    },
    {
      "buffer": 0,
      "byteLength": 404472,
      "byteOffset": 421748,
      "byteStride": 12,
      "name": "floatBufferViews",
      "target": 34962
    },
    {
      "buffer": 0,
      "byteLength": 269648,
      "byteOffset": 826220,
      "byteStride": 16,
      "name": "floatBufferViews",
      "target": 34962
    }
  ],
  "buffers": [
    {
      "byteLength": 1095868,
      "uri": "scene.bin"
    }
  ],
  "images": [
    {
      "uri": "textures/Color_M08_baseColor.jpeg"
    },
    {
      "uri": "textures/details_baseColor.jpeg"
    },
    {
      "uri": "textures/Plaster_White_Smooth_baseColor.jpeg"
    },
    {
      "uri": "textures/celling_baseColor.jpeg"
    },
    {
      "uri": "textures/Glass_Clear_baseColor.png"
    }
  ],
  "materials": [
    {
      "doubleSided": false,
      "emissiveFactor": [
        0,
        0,
        0
      ],
      "name": "celling",
      "pbrMetallicRoughness": {
        "baseColorFactor": [
          1,
          1,
          1,
          1
        ],
        "baseColorTexture": {
          "index": 3,
          "texCoord": 0
        },
        "metallicFactor": 0,
        "roughnessFactor": 0.4921875
      }
    },
    {
      "doubleSided": false,
      "name": "Plaster_White_Smooth",
      "pbrMetallicRoughness": {
        "baseColorFactor": [
          1,
          1,
          1,
          1
        ],
        "baseColorTexture": {
          "index": 2,
          "texCoord": 0
        },
        "metallicFactor": 0,
        "roughnessFactor": 1
      }
    },
    {
      "doubleSided": true,
      "emissiveFactor": [
        0,
        0,
        0
      ],
      "name": "details",
      "pbrMetallicRoughness": {
        "baseColorFactor": [
          1,
          1,
          1,
          1
        ],
        "baseColorTexture": {
          "index": 1,
          "texCoord": 0
        },
        "metallicFactor": 0,
        "roughnessFactor": 0
      }
    },
    {
      "alphaMode": "BLEND",
      "doubleSided": true,
      "name": "Glass_Clear",
      "pbrMetallicRoughness": {
        "baseColorFactor": [
          1,
          1,
          1,
          0.5078125
        ],
        "baseColorTexture": {
          "index": 4,
          "texCoord": 0
        },
        "metallicFactor": 1,
        "roughnessFactor": 0
      }
    },
    {
      "doubleSided": true,
      "emissiveFactor": [
        1,
        1,
        1
      ],
      "name": "light",
      "pbrMetallicRoughness": {
        "baseColorFactor": [
          1,
          1,
          1,
          1
        ],
        "metallicFactor": 0,
        "roughnessFactor": 0.89297135959999996
      }
    },
    {
      "doubleSided": true,
      "emissiveFactor": [
        0,
        0,
        0
      ],
      "name": "Color_M08",
      "pbrMetallicRoughness": {
        "baseColorFactor": [
          1,
          1,
          1,
          1
        ],
        "baseColorTexture": {
          "index": 0,
          "texCoord": 0
        },
        "metallicFactor": 0,
        "roughnessFactor": 0.89297135959999996
      }
    }
  ],
  "meshes": [
    {
      "name": "floor_celling_0",
      "primitives": [
        {
          "attributes": {
            "NORMAL": 1,
            "POSITION": 0,
            "TANGENT": 2,
            "TEXCOORD_0": 3,
            "TEXCOORD_1": 4
          },
          "indices": 5,
          "material": 0,
          "mode": 4
        }
      ]
    },
    {
      "name": "walls_Plaster White Smooth_0",
      "primitives": [
        {
          "attributes": {
            "NORMAL": 7,
            "POSITION": 6,
            "TANGENT": 8,
            "TEXCOORD_0": 9,
            "TEXCOORD_1": 10
          },
          "indices": 11,
          "material": 1,
          "mode": 4
        }
      ]
    },
    {
      "name": "details_details_0",
      "primitives": [
        {
          "attributes": {
            "NORMAL": 13,
            "POSITION": 12,
            "TANGENT": 14,
            "TEXCOORD_0": 15,
            "TEXCOORD_1": 16
          },
          "indices": 17,
          "material": 2,
          "mode": 4
        }
      ]
    },
    {
      "name": "glass_Glass Clear_0",
      "primitives": [
        {
          "attributes": {
            "NORMAL": 19,
            "POSITION": 18,
            "TANGENT": 20,
            "TEXCOORD_0": 21,
            "TEXCOORD_1": 22
          },
          "indices": 23,
          "material": 3,
          "mode": 4
        }
      ]
    },
    {
      "name": "light_light_0",
      "primitives": [
        {
          "attributes": {
            "NORMAL": 25,
            "POSITION": 24,
            "TANGENT": 26,
            "TEXCOORD_0": 27,
            "TEXCOORD_1": 28
          },
          "indices": 29,
          "material": 4,
          "mode": 4
        }
      ]
    },
    {
      "name": "paintiing_Color M08_0",
      "primitives": [
        {
          "attributes": {
            "NORMAL": 31,
            "POSITION": 30,
            "TANGENT": 32,
            "TEXCOORD_0": 33,
            "TEXCOORD_1": 34
          },
          "indices": 35,
          "material": 5,
          "mode": 4
        }
      ]
    }
  ],
  "nodes": [
    {
      "children": [
        1
      ],
      "name": "RootNode (gltf orientation matrix)",
      "rotation": [
        -0.70710678118654746,
        -0,
        -0,
        0.70710678118654757
      ]
    },
    {
      "children": [
        2
      ],
      "name": "RootNode (model correction matrix)"
    },
    {
      "children": [
        3
      ],
      "matrix": [
        1,
        0,
        0,
        0,
        0,
        0,
        1,
        0,
        0,
        -1,
        0,
        0,
        0,
        0,
        0,
        1
      ],
      "name": "52fb0c8ad2be48eca6d8a6f30872fb21.fbx"
    },
    {
      "children": [
        4,
        6,
        8,
        10,
        12,
        14,
        16
      ],
      "name": "RootNode"
    },
    {
      "children": [
        5
      ],
      "matrix": [
        3.0628121550080323e-07,
        0,
        0.99999999999995315,
        0,
        -8.7422776573474296e-08,
        0.99999999999999623,
        2.6775954278417737e-14,
        0,
        -0.99999999999994937,
        -8.7422776573478399e-08,
        3.0628121550080323e-07,
        0,
        46.908927917480469,
        65.199005126953125,
        -766.19482421875,
        1
      ],
      "name": "Camera003"
    },
    {
      "name": ""
    },
    {
      "children": [
        7
      ],
      "matrix": [
        -0.999999999999996,
        -1.2246468525851679e-16,
        8.7422776695940424e-08,
        0,
        8.7422776695940424e-08,
        -2.2204460492503131e-16,
        0.99999999999999623,
        0,
        -1.2246467202362698e-16,
        1,
        2.2204460492503131e-16,
        0,
        200.98211669921875,
        0,
        -812.10125732421875,
        1
      ],
      "name": "floor"
    },
    {
      "mesh": 0,
      "name": "floor_celling_0"
    },
    {
      "children": [
        9
      ],
      "matrix": [
        -0.99999999999998868,
        -1.2246469849340659e-16,
        1.5099580265055077e-07,
        0,
        1.5099580265055077e-07,
        -4.4408920985006262e-16,
        0.99999999999998868,
        0,
        -1.2246464555384738e-16,
        1,
        3.3306690738754696e-16,
        0,
        200.98211669921875,
        0,
        -221.55007934570312,
        1
      ],
      "name": "walls"
    },
    {
      "mesh": 1,
      "name": "walls_Plaster White Smooth_0"
    },
    {
      "children": [
        11
      ],
      "matrix": [
        1,
        0,
        0,
        0,
        0,
        2.2204460492503131e-16,
        -1,
        0,
        0,
        1,
        2.2204460492503131e-16,
        0,
        -21.08978271484375,
        138.12190246582031,
        -741.366455078125,
        1
      ],
      "name": "details"
    },
    {
      "mesh": 2,
      "name": "details_details_0"
    },
    {
      "children": [
        13
      ],
      "matrix": [
        0.99999999999998845,
        1.2246469849340659e-16,
        -1.5099580265055075e-07,
        -0,
        1.5099580265054902e-07,
        -1.5099580286115355e-07,
        0.99999999999997713,
        -0,
        2.267726774562492e-14,
        0.99999999999998845,
        1.5099580275013125e-07,
        -0,
        -108.072998046875,
        21.653543472290039,
        -628.83355712890625,
        1
      ],
      "name": "glass"
    },
    {
      "mesh": 3,
      "name": "glass_Glass Clear_0"
    },
    {
      "children": [
        15
      ],
      "matrix": [
        1,
        0,
        0,
        0,
        0,
        2.2204460492503131e-16,
        -1,
        0,
        0,
        1,
        2.2204460492503131e-16,
        0,
        -21.08978271484375,
        138.12190246582031,
        -741.366455078125,
        1
      ],
      "name": "light"
    },
    {
      "mesh": 4,
      "name": "light_light_0"
    },
    {
      "children": [
        17
      ],
      "matrix": [
        -0.999999999999996,
        -1.2246468525851679e-16,
        8.7422776695940424e-08,
        0,
        8.7422776695940424e-08,
        -2.2204460492503131e-16,
        0.99999999999999623,
        0,
        -1.2246467202362698e-16,
        1,
        2.2204460492503131e-16,
        0,
        151.76950073242188,
        31.496063232421875,
        -222.33749389648438,
        1
      ],
      "name": "paintiing"
    },
    {
      "mesh": 5,
      "name": "paintiing_Color M08_0"
    }
  ],
  "samplers": [
    {
      "magFilter": 9728,
      "minFilter": 9728,
      "wrapS": 10497,
      "wrapT": 10497
    },
    {
      "magFilter": 9729,
      "minFilter": 9987,
      "wrapS": 10497,
      "wrapT": 10497
    }
  ],
  "scene": 0,
  "scenes": [
    {
      "name": "OSG_Scene",
      "nodes": [
        0
      ]
    }
  ],
  "textures": [
    {
      "sampler": 0,
      "source": 0
    },
    {
      "sampler": 1,
      "source": 1
    },
    {
      "sampler": 1,
      "source": 2
    },
    {
      "sampler": 1,
      "source": 3
    },
    {
      "sampler": 1,
      "source": 4
    }
  ]
}

